HIERARCHY
ROOT hip
{
	OFFSET 0.000000 0.000000 0.000000 
	CHANNELS 6 Xposition Yposition Zposition Xrotation Zrotation Yrotation
	JOINT abdomen
	{
		OFFSET 0.000000 3.402643 0.000000 
		CHANNELS 3 Xrotation Zrotation Yrotation
		JOINT chest
		{
			OFFSET 0.000000 8.438565 -0.680529 
			CHANNELS 3 Xrotation Zrotation Yrotation
			JOINT neck
			{
				OFFSET 0.000000 10.207942 -0.272212 
				CHANNELS 3 Xrotation Zrotation Yrotation
				JOINT head
				{
					OFFSET 0.000000 3.130431 0.000000 
					CHANNELS 3 Xrotation Zrotation Yrotation
					End Site
					{
						OFFSET 0.000000 3.130435 0.000000 
					}
				}
			}
			JOINT lCollar
			{
				OFFSET 3.470700 6.669187 -0.816635 
				CHANNELS 3 Yrotation Zrotation Xrotation
				JOINT lShldr
				{
					OFFSET 3.198488 0.000000 0.000000 
					CHANNELS 3 Zrotation Yrotation Xrotation
					JOINT lForeArm
					{
						OFFSET 10.139888 0.000000 0.000000 
						CHANNELS 3 Yrotation Zrotation Xrotation
						JOINT lHand
						{
							OFFSET 8.370511 0.000000 0.000000 
							CHANNELS 3 Zrotation Yrotation Xrotation
							End Site
							{
								OFFSET 4.083176 0.000000 0.000000 
							}
						}
					}
				}
			}
			JOINT rCollar
			{
				OFFSET -3.470700 6.669187 -0.816635 
				CHANNELS 3 Yrotation Zrotation Xrotation
				JOINT rShldr
				{
					OFFSET -3.198488 0.000000 0.000000 
					CHANNELS 3 Zrotation Yrotation Xrotation
					JOINT rForeArm
					{
						OFFSET -10.139888 0.000000 0.000000 
						CHANNELS 3 Yrotation Zrotation Xrotation
						JOINT rHand
						{
							OFFSET -8.370511 0.000000 0.000000 
							CHANNELS 3 Zrotation Yrotation Xrotation
							End Site
							{
								OFFSET -4.083176 0.000000 0.000000 
							}
						}
					}
				}
			}
		}
	}
	JOINT lThigh
	{
		OFFSET 5.308129 -1.633274 1.361059 
		CHANNELS 3 Xrotation Zrotation Yrotation
		JOINT lShin
		{
			OFFSET -2.041588 -20.007561 0.000000 
			CHANNELS 3 Xrotation Zrotation Yrotation
			JOINT lFoot
			{
				OFFSET 0.000000 -19.190928 -1.224953 
				CHANNELS 3 Xrotation Yrotation Zrotation
				End Site
				{
					OFFSET 0.000000 -2.449906 4.627600 
				}
			}
		}
	}
	JOINT rThigh
	{
		OFFSET -5.308129 -1.633274 1.361059 
		CHANNELS 3 Xrotation Zrotation Yrotation
		JOINT rShin
		{
			OFFSET 2.041588 -20.007561 0.000000 
			CHANNELS 3 Xrotation Zrotation Yrotation
			JOINT rFoot
			{
				OFFSET 0.000000 -19.190928 -1.224953 
				CHANNELS 3 Xrotation Yrotation Zrotation
				End Site
				{
					OFFSET 0.000000 -2.449906 4.627600 
				}
			}
		}
	}
}
MOTION
Frames: 13
Frame Time: 0.016667
-0.258146 49.542816 -0.248339 -15.439919 1.881729 3.253725 8.255935 -1.815896 -1.358287 14.068370 -2.402210 -0.606165 17.370564 0.449052 -1.562528 -16.889997 4.070968 -1.448598 -7.296926 -15.510426 11.622595 -48.946983 1.520726 22.752136 -91.034332 6.335992 12.140275 28.774330 -27.938974 32.844780 7.985645 7.870211 12.367444 51.225662 -0.335905 31.574459 84.851662 -6.944611 13.954313 -60.232391 44.809246 -16.259064 11.471121 1.180613 -5.813724 25.274220 -0.743931 -1.136748 -15.459566 4.360248 -1.794516 3.416412 -5.887713 -2.637394 35.650280 -0.762496 1.145867 -11.430131 1.367918 3.796752 
-0.092545 49.555592 -0.449665 -15.390986 2.421175 1.378199 8.255935 -1.815896 -1.358287 14.432152 -3.251942 -0.146802 17.228466 -0.917719 -1.338188 -17.238480 3.543518 -1.614283 -6.558242 -16.263474 11.936836 -49.111759 2.108792 21.728817 -90.174316 6.378396 11.921498 28.449957 -27.136900 34.436806 8.590376 7.226799 12.863035 51.025936 0.861380 31.323757 86.055893 -6.751447 14.017440 -59.767551 44.972061 -18.212585 11.746537 -0.049073 -5.143708 24.414574 -0.812207 -0.808656 -14.844933 5.574982 -1.966100 2.711294 -7.112028 -3.450097 36.176785 -0.772556 1.170568 -11.029889 0.786306 3.499443 
0.078814 49.570187 -0.605830 -15.437624 2.597511 -0.605732 8.255935 -1.815896 -1.358287 14.785685 -3.583777 0.615863 17.263166 -1.943174 -0.791554 -17.587244 2.840459 -1.759524 -5.613213 -16.431242 12.367898 -49.703136 2.979899 20.860180 -89.335052 6.533636 11.887787 28.226316 -26.479292 35.404602 9.360198 7.166272 13.273472 50.475864 2.002247 30.926260 87.284546 -6.593094 14.081391 -59.818913 44.443882 -21.265478 11.963243 -0.732436 -4.030055 23.860920 -0.929030 -1.145761 -14.727157 6.654187 -1.766579 1.872613 -7.842799 -4.423870 36.499859 -0.876246 1.324482 -10.831279 0.943477 3.551234 
0.230323 49.584705 -0.727681 -15.183422 2.302282 -2.618996 8.255935 -1.815896 -1.358287 14.790480 -3.583034 1.320664 17.268799 -2.773345 -0.469618 -17.759895 1.961828 -1.885667 -4.913872 -16.261225 12.429032 -50.864769 4.094190 20.126621 -88.827850 6.566295 11.860074 28.258751 -25.970581 36.032825 10.038178 7.352806 13.285643 49.915890 3.134146 30.523203 88.253387 -6.543128 14.123132 -60.053299 43.589180 -23.696461 11.821533 -1.083883 -3.366123 23.533031 -1.152882 -0.812205 -14.535949 7.321830 -2.223179 1.150268 -8.125657 -4.603683 36.530754 -0.596981 1.246854 -10.401767 1.202610 3.679209 
0.344193 49.603165 -0.835089 -14.766982 1.343260 -4.630150 8.255935 -1.815896 -1.358287 14.600317 -3.073968 2.170608 17.069784 -3.085938 0.009751 -17.570677 1.092967 -2.168319 -4.257143 -15.549201 12.310560 -52.095806 5.356598 19.935347 -88.574226 6.602017 11.843864 28.387402 -25.604218 36.048309 10.769196 8.022117 13.024364 49.187988 4.250942 30.118761 88.849419 -6.382113 14.144595 -60.687378 43.199413 -25.037539 11.625352 -0.742109 -1.695725 23.700800 -1.074204 -1.117005 -14.994869 8.069131 -1.990153 0.477215 -7.285977 -4.720973 36.001095 -0.753217 1.180161 -10.139358 1.551539 3.636588 
0.420357 49.633320 -0.947184 -14.064709 -0.067940 -6.347663 8.255935 -1.815896 -1.358287 14.241611 -2.223651 2.931648 16.655275 -3.251862 0.430104 -17.568476 0.214616 -2.636737 -3.796208 -14.518098 12.058513 -53.560402 6.719450 20.081793 -88.574226 6.602017 11.843864 28.577866 -25.399952 35.713234 11.364949 8.950492 12.508214 48.448898 5.155107 29.222578 88.898560 -6.405333 14.143544 -61.417339 43.599339 -24.164633 10.836478 0.332502 -0.604698 24.050562 -1.175874 -0.823040 -15.438114 8.580764 -2.089273 -0.059230 -6.076218 -4.113418 34.947140 -0.762791 1.131438 -9.341400 1.959310 3.464401 
0.476490 49.682007 -1.071494 -13.290473 -1.819565 -7.660429 8.255935 -1.815896 -1.358287 13.877251 -1.032917 3.769974 16.221956 -2.841546 0.762235 -17.570801 -0.672832 -3.115478 -3.336302 -13.145159 11.814870 -54.687099 7.947420 20.576067 -88.847122 6.583771 11.853966 28.828739 -25.357595 35.116280 11.990097 10.211787 11.887123 47.718159 5.851684 28.143309 88.457428 -6.410766 14.133336 -61.936874 44.773670 -21.578413 10.074782 1.376998 0.139849 24.761908 -0.980570 -0.819692 -16.219675 9.033077 -1.947236 -0.380591 -4.522775 -3.334978 33.337246 -0.732319 1.085210 -8.510579 2.734086 3.371686 
0.534556 49.750244 -1.202476 -12.744378 -3.444793 -8.863814 8.255935 -1.815896 -1.358287 13.886003 -0.009739 4.199219 15.815722 -2.070035 0.937947 -17.746759 -1.198797 -3.604360 -3.015458 -11.824422 11.676979 -55.453075 9.005215 21.463398 -89.316193 6.516099 11.894522 29.132898 -25.653290 34.412281 12.418119 11.458076 11.441940 47.293953 6.562037 26.517176 87.539841 -6.536697 14.277250 -62.085629 46.102291 -17.976704 9.445701 2.742656 0.911214 25.114269 -0.873945 -0.630183 -16.509678 9.850690 -2.320239 -0.545481 -2.590253 -2.340151 31.560398 -0.732194 1.034522 -7.576445 2.993766 3.638462 
0.605522 49.833042 -1.328951 -12.213721 -5.075542 -9.550104 8.255935 -1.815896 -1.358287 13.876471 1.187437 4.678751 15.619210 -1.249903 0.712934 -18.104385 -1.373409 -4.112720 -2.962238 -10.774160 11.943904 -55.685989 9.763354 22.903294 -89.979713 6.427885 11.910766 29.528482 -25.914175 33.035240 12.441111 12.535996 11.390171 47.220341 7.318831 24.819798 86.279343 -6.763230 14.019579 -61.790527 47.011280 -14.902399 9.095818 4.178112 0.966330 25.472864 -0.965825 -0.656612 -16.904646 10.336633 -2.189530 -0.019408 -0.940826 -1.826860 29.488409 -0.370871 1.033212 -6.345097 3.435121 3.402420 
0.686252 49.922501 -1.443466 -11.875609 -6.586574 -10.106532 8.255935 -1.815896 -1.358287 13.891838 2.208586 4.935495 15.250964 -0.253889 0.664056 -18.447758 -1.372795 -4.454418 -2.783163 -9.685521 11.989564 -55.500668 10.041692 24.333401 -90.819588 6.350243 11.956665 29.872055 -25.837099 31.811312 12.664293 13.592873 11.109038 47.209957 7.734710 23.336645 84.656120 -6.976188 14.119605 -61.597248 46.838249 -13.339348 8.822766 5.369223 0.778661 25.479471 -0.867990 -0.286404 -17.419447 11.454313 -2.296633 0.417029 0.000812 -1.755758 27.738529 -0.576200 0.912379 -5.502572 4.182414 3.703041 
0.768800 50.011662 -1.544661 -11.596753 -7.932267 -10.532272 8.255935 -1.815896 -1.358287 14.075554 3.063712 5.163997 15.279510 0.869119 0.400493 -18.805624 -1.196950 -4.805881 -2.906704 -8.853295 12.206782 -55.165672 10.349527 25.937843 -91.980507 6.166663 12.192260 30.223703 -25.730970 30.277029 12.499755 14.454267 11.103017 47.406147 8.015479 22.025145 82.540092 -7.189990 13.997361 -61.555145 45.536831 -13.639921 8.784196 6.384289 0.596462 25.462542 -0.863820 -0.479321 -17.583054 12.350348 -2.167196 1.088559 1.068717 -1.796921 25.643217 -0.288591 0.938739 -4.098795 5.006249 3.609866 
0.850992 50.096054 -1.633795 -11.318617 -9.274273 -10.955534 8.255935 -1.815896 -1.358287 14.088084 3.908581 5.374117 14.968311 2.138603 0.459394 -18.978537 -0.846363 -5.010372 -2.900272 -7.977433 12.241385 -54.756561 10.317383 27.350771 -93.120895 6.058890 12.060039 30.509346 -25.104130 28.918306 12.542690 15.320574 10.922939 47.504894 8.144632 21.289072 80.143181 -7.489812 13.844753 -61.442307 43.610641 -14.796828 8.824242 7.438416 0.398581 25.311953 -0.795533 -0.623466 -18.190323 13.089131 -2.062059 1.844508 2.351916 -2.340323 23.696516 -0.274423 0.996036 -3.065464 6.105592 3.602394 
0.938139 50.173656 -1.708604 -10.915009 -10.411337 -11.640792 8.255935 -1.815896 -1.358287 13.917282 4.599037 5.359783 14.685415 3.408159 0.293612 -19.328209 -0.495844 -5.390845 -3.098395 -7.311777 12.112367 -54.344868 10.500273 28.428753 -94.244850 5.967615 12.124103 30.599018 -24.508318 27.650915 12.450202 15.920971 10.625984 47.648720 8.135622 20.917219 77.638596 -7.863639 13.858408 -61.303154 41.532505 -15.623956 8.793612 8.286000 0.528944 25.470409 -0.791224 -0.834501 -18.780968 14.085181 -2.031308 2.499035 3.172678 -2.200654 21.595438 -0.186225 0.777951 -2.028820 6.822633 3.632499 
